<svg width="135" height="102" viewBox="0 0 135 102" fill="none" xmlns="http://www.w3.org/2000/svg">
<path d="M103.927 84.4508C102.032 86.4424 100.238 87.7296 98.8241 88.7457C82.1717 100.682 62.4676 97.2034 58.2799 96.3532C52.0951 95.1 40.1424 92.6748 31.4991 82.5201C18.4241 67.1595 20.4586 42.9617 30.6006 26.988C32.4553 24.0649 42.2549 7.85062 62.1726 5.2493C74.227 3.67428 88.2752 6.85141 98.4511 15.3667C119.81 33.2406 118.288 69.3509 103.927 84.4508Z" fill="#305263"/>
<path d="M108.884 52.2921L86.9614 39.619C85.4453 38.7167 83.5194 38.7167 82.0032 39.619L21.5624 74.5213H17.3418V78.2125V78.2945C17.3828 78.9917 17.7106 79.689 18.4072 80.0581L43.2391 94.4127C44.9192 95.397 47.009 95.397 48.6891 94.4127L112.039 57.8289C112.736 57.4187 113.105 56.7625 113.105 56.0653V52.2921H108.884Z" fill="#87BCC8"/>
<path d="M18.4482 72.6758L82.0033 35.9279C83.5194 35.0256 85.4453 35.0256 86.9615 35.9279L112.039 50.4056C113.473 51.2258 113.473 53.3175 112.039 54.1378L48.7301 90.7216C47.05 91.7059 44.9602 91.7059 43.2802 90.7216L18.4482 76.367C17.014 75.5467 17.014 73.496 18.4482 72.6758Z" fill="white"/>
<path d="M46.1485 91.0497C45.288 91.0497 44.4275 90.8446 43.6489 90.3935L19.0218 76.0388C18.4891 75.7107 18.1613 75.1366 18.1613 74.5214C18.1613 73.9062 18.4891 73.332 19.0218 73.0039L82.0442 36.256C82.7408 35.8458 83.5194 35.6408 84.2979 35.6408C85.0765 35.6408 85.855 35.8458 86.5517 36.256L111.425 50.7336C111.957 51.0618 112.285 51.6359 112.285 52.2511C112.285 52.8663 111.957 53.4405 111.425 53.7686L48.6481 90.3935C47.8695 90.8446 47.009 91.0497 46.1485 91.0497ZM84.2979 34.8615C83.3964 34.8615 82.454 35.1076 81.6344 35.5587L18.6121 72.3066L18.735 72.4707L18.817 72.6347L18.735 72.4707L18.6121 72.3066C17.8335 72.7578 17.3418 73.578 17.3418 74.5214C17.3418 75.4647 17.8335 76.2849 18.6121 76.7361L43.2391 91.0907C44.1406 91.6239 45.1241 91.87 46.1485 91.87C47.1729 91.87 48.1564 91.6239 49.0579 91.0907L111.834 54.5069C112.613 54.0557 113.105 53.2355 113.105 52.2922C113.105 51.3899 112.613 50.5696 111.834 50.0774L86.9614 35.5998C86.1419 35.1076 85.2404 34.8615 84.2979 34.8615Z" fill="url(#paint0_linear)"/>
<path d="M25.6189 70.7892L77.1678 40.9725C78.1512 40.3983 79.3395 40.3983 80.282 40.9725L104.622 54.9991C104.95 55.2041 104.95 55.6553 104.622 55.8603L53.3193 85.841C52.3358 86.4152 51.1475 86.4152 50.164 85.841L25.5779 71.6094C25.2911 71.4454 25.2911 70.9942 25.6189 70.7892Z" fill="#085261"/>
<path opacity="0.8" d="M96.0583 50.0774L30.7412 74.6033L50.2052 85.841H50.2462C50.2462 85.841 50.2462 85.841 50.2872 85.841C50.7379 86.087 51.2706 86.2101 51.8033 86.2101C52.336 86.2101 52.9097 86.087 53.3604 85.8L104.663 55.8193C104.827 55.7372 104.909 55.5732 104.909 55.4091C104.909 55.2451 104.827 55.081 104.663 54.999L96.0583 50.0774Z" fill="#06788C"/>
<path d="M112.817 33.9592L92.1651 21.9833C91.7963 21.7783 91.1817 21.7783 90.8129 21.9833L28.0774 58.2391C27.8725 58.3621 27.7905 58.4851 27.7905 58.6492V61.3561C27.7905 61.4791 27.8725 61.6432 28.0774 61.7662L48.7707 73.7011C49.1395 73.9061 49.7541 73.9061 50.1229 73.7011L112.817 37.4863C112.981 37.3633 113.104 37.2403 113.104 37.1172V34.4104C113.104 34.2053 113.022 34.0412 112.817 33.9592Z" fill="#0D4650"/>
<g opacity="0.8">
<path opacity="0.8" d="M90.6918 21.9834L28.0792 58.1571C27.7104 58.3622 27.7104 58.7313 28.0792 58.9364L48.7315 70.8712C49.1003 71.0763 49.715 71.0763 50.0838 70.8712L112.696 34.6975C113.065 34.4924 113.065 34.1233 112.696 33.9183L92.044 21.9834C91.6752 21.7783 91.0606 21.7783 90.6918 21.9834Z" fill="#32B9CF"/>
</g>
<path d="M99.582 26.2899L112.818 33.9184C113.186 34.1235 113.186 34.4926 112.818 34.6976L50.2459 70.9124C49.8771 71.1174 49.2625 71.1174 48.8937 70.9124L47.7463 70.2562C45.7385 64.7604 47.3366 61.8484 50.041 60.2079C54.5895 57.46 60.695 59.1416 65.6942 56.2706C71.5539 52.8665 66.7596 48.4371 72.8242 44.951C77.6594 42.1621 82.2898 44.1717 86.5924 41.5058C92.3701 37.9377 87.0841 32.4829 93.6404 28.5046C95.6483 27.2332 98.0249 26.618 99.582 26.2899Z" fill="#2EC6BA"/>
<path d="M76.5119 37.2402L70.98 40.4393C70.6522 40.6443 70.0786 40.6443 69.7507 40.4393C69.4229 40.2342 69.4229 39.9471 69.7507 39.7421L75.2826 36.543C75.6104 36.338 76.1841 36.338 76.5119 36.543C76.8807 36.7071 76.8807 37.0352 76.5119 37.2402Z" fill="#F4F6FA"/>
<path d="M70.6111 40.1932C70.4882 40.2752 70.3243 40.2752 70.2013 40.1932C70.0784 40.1111 70.0784 40.0291 70.2013 39.9471L75.7332 36.748C75.8561 36.666 76.02 36.666 76.143 36.748C76.2659 36.8301 76.2659 36.9121 76.143 36.9941L70.6111 40.1932Z" fill="#D2D6E3"/>
<path opacity="0.25" d="M112.696 17.2255L68.3588 42.8588C67.8261 43.1869 66.9246 43.1869 66.3919 42.8588L38.9784 27.0277C38.4457 26.6996 38.4457 26.2074 38.9784 25.8793L83.3153 0.246019C83.848 -0.0820876 84.7495 -0.0820876 85.2822 0.246019L112.655 16.0771C113.269 16.4053 113.269 16.8974 112.696 17.2255Z" fill="#E2E5ED"/>
<path d="M113.105 16.6106C113.064 16.4055 112.941 16.2414 112.695 16.0774L85.3223 0.246263C84.7896 -0.0818434 83.8881 -0.0818434 83.3554 0.246263L38.9775 25.8796C38.6907 26.0436 38.5677 26.2487 38.5677 26.4537V29.5708V29.6938H38.6087C38.6497 29.8578 38.7726 30.0219 38.9775 30.1449L66.35 45.9761C66.8827 46.3042 67.7842 46.3042 68.3169 45.9761L112.654 20.3428C112.941 20.1787 113.064 19.9736 113.064 19.7686L113.105 16.6106Z" fill="#0D4650"/>
<path opacity="0.8" d="M112.695 17.2256L68.3584 42.8589C67.8257 43.187 66.9243 43.187 66.3916 42.8589L39.019 26.9867C38.4863 26.6586 38.4863 26.1665 39.019 25.8384L83.356 0.24608C83.8887 -0.0820266 84.7901 -0.0820266 85.3228 0.24608L112.695 16.0772C113.269 16.3643 113.269 16.8975 112.695 17.2256Z" fill="#2590A2"/>
<path opacity="0.25" d="M89.4201 4.92178L109.786 16.6926C110.031 16.8156 110.031 17.0617 109.786 17.1848L68.2761 41.1775C68.0302 41.3006 67.6614 41.3006 67.4156 41.1775L58.8104 36.2149C61.7198 33.0159 64.5062 31.3753 66.678 30.4731C67.7024 30.0629 70.202 28.9966 71.7591 27.151C72.2918 26.4948 72.6606 25.7155 72.7016 24.6902C72.8655 21.3681 71.964 20.3838 76.5944 17.841C81.2248 15.2981 82.0443 13.6986 81.6345 8.94108C81.2248 4.18354 89.4201 4.92178 89.4201 4.92178Z" fill="#E2E5ED"/>
<path d="M109.786 17.1438L106.016 19.3175L105.688 19.5226L97.5744 24.1981L97.2466 24.4031L89.2152 29.0376L88.8464 29.2427L80.692 33.9592L80.3642 34.1643L72.2508 38.8398L71.9229 39.0449L68.276 41.1366C68.0301 41.2596 67.6614 41.2596 67.4155 41.1366L66.473 40.5624C67.2926 39.291 68.317 38.2656 69.3004 37.5274C69.4234 37.4454 69.5053 37.3633 69.6282 37.2813C70.2429 36.8302 70.8575 36.5021 71.3902 36.174C73.4391 35.1076 74.7503 34.6565 75.8157 34.2463C76.7582 33.8772 77.4548 33.5901 78.2334 32.8519C78.2743 32.8109 78.3153 32.7699 78.3973 32.7288C78.4383 32.6878 78.4792 32.6468 78.5202 32.6058C79.7495 31.3754 79.8315 30.186 79.8724 29.0376C79.9134 27.6842 79.9544 26.4128 81.7574 25.1004C81.7984 25.0594 81.8803 25.0183 81.9213 24.9773C81.9623 24.9363 82.0442 24.8953 82.0852 24.8543C82.6179 24.4852 83.2325 24.1571 84.5848 23.6239C87.2483 22.6396 89.2971 22.7626 91.6328 21.1221C91.7557 21.0401 91.8377 20.958 91.9606 20.876C95.0339 18.4152 92.6572 15.0111 94.0914 12.7554C94.1734 12.6733 94.2143 12.5503 94.2963 12.4683C94.6241 12.0992 95.0339 11.7711 95.6485 11.484C96.9598 10.8688 98.5579 10.7457 99.5823 10.7047L109.786 16.6927C110.031 16.8157 110.031 17.0208 109.786 17.1438Z" fill="url(#paint1_linear)"/>
<path d="M72.2098 38.8808L71.882 39.0859L69.3004 37.5684L61.9656 33.344C61.8836 33.303 61.8427 33.18 61.8836 33.0979C61.9246 33.0159 62.0475 32.9749 62.1295 33.0159L69.5873 37.3223L72.1278 38.7988C72.1688 38.7988 72.2098 38.8398 72.2098 38.8808Z" fill="#F4F6FA"/>
<path d="M80.6922 33.9594L80.3644 34.1644L78.2336 32.934L70.448 28.4226C70.366 28.3816 70.3251 28.2585 70.3661 28.1765C70.407 28.0945 70.53 28.0534 70.6119 28.0945L78.5204 32.6469L80.6512 33.8773C80.6512 33.9183 80.6922 33.9594 80.6922 33.9594Z" fill="#F4F6FA"/>
<path d="M97.5335 24.239L97.2057 24.4441L91.6738 21.2451L80.5691 14.806C80.4871 14.765 80.4462 14.6419 80.4871 14.5599C80.5281 14.4779 80.6511 14.4369 80.733 14.4779L91.9607 20.958L97.4515 24.157C97.4925 24.198 97.5335 24.198 97.5335 24.239Z" fill="#F4F6FA"/>
<path d="M106.016 19.3574L105.688 19.5624L94.1324 12.8773L82.8228 6.31514C82.7408 6.27413 82.6998 6.15109 82.7408 6.06906C82.7818 5.98704 82.9047 5.94602 82.9867 5.98704L94.3373 12.5492L105.934 19.2753C105.975 19.2753 106.016 19.3164 106.016 19.3574Z" fill="#F4F6FA"/>
<path d="M84.093 6.84909C83.7242 7.05416 83.1096 7.05416 82.7408 6.84909L81.6754 6.23389C81.3066 6.02883 81.3066 5.65971 81.6754 5.45464C82.0442 5.24958 82.6588 5.24958 83.0276 5.45464L84.093 6.06984C84.4618 6.27491 84.4618 6.64403 84.093 6.84909Z" fill="#00FFFF"/>
<path d="M71.2673 27.8895C71.677 28.1355 71.677 28.5047 71.2673 28.7097C70.8575 28.9558 70.2429 28.9558 69.8331 28.7097C69.4233 28.4636 69.4233 28.0945 69.8331 27.8895C70.2429 27.6844 70.8985 27.6844 71.2673 27.8895Z" fill="#00FFFF"/>
<path d="M81.4294 14.2729C81.8391 14.519 81.8391 14.8881 81.4294 15.0931C81.0196 15.3392 80.405 15.3392 79.9952 15.0931C79.5854 14.8471 79.5854 14.4779 79.9952 14.2729C80.364 14.0678 81.0196 14.0678 81.4294 14.2729Z" fill="#00FFFF"/>
<path d="M63.2356 33.8774C62.8668 34.0824 62.2522 34.0824 61.8834 33.8774L60.818 33.2622C60.4492 33.0571 60.4492 32.688 60.818 32.4829C61.1868 32.2778 61.8014 32.2778 62.1702 32.4829L63.2356 33.0981C63.6454 33.3032 63.6454 33.6723 63.2356 33.8774Z" fill="#00FFFF"/>
<path d="M89.1737 29.0789L88.8049 29.2839L81.7159 25.1826L73.3157 20.343C73.2337 20.302 73.1928 20.179 73.2337 20.097C73.2747 20.0149 73.3976 19.9739 73.4796 20.0149L82.0437 24.9365L89.0508 28.9968C89.1327 29.0378 89.1327 29.0379 89.1737 29.0789Z" fill="#F4F6FA"/>
<path d="M74.2175 19.8095C74.6272 20.0556 74.6272 20.4247 74.2175 20.6298C73.8077 20.8349 73.193 20.8759 72.7833 20.6298C72.3735 20.3837 72.3735 20.0146 72.7833 19.8095C73.193 19.6045 73.8077 19.5635 74.2175 19.8095Z" fill="#00FFFF"/>
<path d="M101.784 89.8187H100.473C98.1372 86.8657 93.0151 84.774 86.9915 84.733C80.845 84.692 75.559 86.7837 73.1824 89.8187H71.8711V93.7559C72.2399 98.3084 78.6732 101.918 86.6228 102C94.6952 102.041 101.333 98.3904 101.702 93.7559H101.743V89.8187H101.784Z" fill="#043647"/>
<path d="M101.784 90.3523C101.702 95.1099 94.9413 98.9651 86.664 98.8831C78.3867 98.8421 71.7894 94.9458 71.8714 90.1883C71.9533 85.4308 78.7145 81.5755 86.9918 81.6575C95.2282 81.6985 101.866 85.5948 101.784 90.3523Z" fill="#25B4CB"/>
<path d="M87.8113 93.2639C87.1556 93.2639 86.5 93.0999 85.8034 92.6897L85.5166 92.5257L87.4425 91.4183L87.6474 91.5414C87.9752 91.7464 88.262 91.8285 88.4669 91.8285C88.7127 91.8285 88.9176 91.7874 89.1225 91.6644C89.3274 91.5414 89.4094 91.4183 89.4094 91.2953C89.3684 91.1722 89.2864 91.0082 89.0815 90.9262C88.8357 90.8031 88.5898 90.7211 88.262 90.7211C87.9752 90.7211 87.6474 90.7621 87.3195 90.8441C86.9917 90.9262 86.6229 91.0082 86.2541 91.0902C85.8853 91.1722 85.4756 91.2543 85.1068 91.2953C84.697 91.3363 84.2873 91.2953 83.8775 91.2543C83.4677 91.1722 83.017 91.0082 82.6072 90.7621C81.2959 89.9829 81.173 89.1626 82.2794 88.3013L81.6647 87.9322L82.6482 87.358L83.2628 87.7271C84.0414 87.358 84.779 87.194 85.4756 87.235C86.1722 87.276 86.8688 87.4811 87.5654 87.9322L85.6805 88.9985L85.5166 88.9165C85.3117 88.7935 85.0658 88.7115 84.82 88.6704C84.5741 88.6294 84.3282 88.6704 84.1643 88.7935C83.9594 88.9165 83.8775 89.0396 83.8775 89.1626C83.9185 89.2856 84.0004 89.4087 84.1643 89.5317C84.4102 89.6958 84.697 89.7368 84.9839 89.7368C85.2707 89.7368 85.5985 89.6958 85.9673 89.6137C86.2951 89.5317 86.6639 89.4497 87.0327 89.3266C87.4015 89.2446 87.8113 89.1626 88.221 89.1216C88.6308 89.0806 89.0406 89.0806 89.4913 89.1626C89.9421 89.2446 90.3928 89.4087 90.8435 89.6548C91.5402 90.0649 91.9089 90.516 91.868 90.9262C91.827 91.3363 91.4992 91.7874 90.8026 92.2386L91.745 92.8128L90.7616 93.387L89.8191 92.8128C89.1635 93.0589 88.4669 93.2229 87.8113 93.2639Z" fill="white"/>
<path d="M132.25 28.7669L124.729 21.9135V20.4529L121.979 19.4417L112.662 40.1144L115.412 41.0694L115.805 40.8447V51.1249V53.2034V60.8433L118.555 61.7983V59.2142L125.122 55.4504L129.107 53.1472V30.6207L132.25 28.7669Z" fill="#6F75DB"/>
<path d="M124.729 20.452L135 29.7772L131.857 31.5748V54.1013L127.872 56.4607L118.555 61.7974V54.2137V52.1352V39.2709L115.412 41.0685L124.729 20.452Z" fill="#7F86FF"/>
<path d="M22.8698 45.828C29.0655 45.5666 33.8692 40.1952 33.5992 33.8305C33.3291 27.4658 28.0877 22.5181 21.892 22.7794C15.6964 23.0408 10.8927 28.4122 11.1627 34.7769C11.4327 41.1416 16.6742 46.0893 22.8698 45.828Z" fill="#37AABE"/>
<path d="M22.0358 43.1745L21.9465 40.995C20.7343 41.0205 19.4584 40.6891 18.6928 40.1793L19.1394 38.7136C19.9177 39.1979 21.0278 39.5675 22.2016 39.5165C23.6945 39.4528 24.6642 38.5224 24.6132 37.2988C24.5621 36.1135 23.72 35.4125 22.1378 34.8389C19.9687 34.0614 18.6035 33.131 18.5269 31.2574C18.4504 29.4731 19.637 28.0583 21.5509 27.6504L21.4616 25.471L22.7631 25.42L22.8524 27.5102C24.1156 27.4975 24.9832 27.8034 25.6084 28.1475L25.1491 29.5878C24.7025 29.3456 23.8221 28.9123 22.4824 28.9632C20.8619 29.027 20.3005 30.0466 20.3388 30.9133C20.3898 32.0349 21.1809 32.5575 23.0438 33.2585C25.2384 34.0742 26.374 35.1448 26.4633 37.0694C26.5398 38.7773 25.4553 40.4087 23.3117 40.8675L23.401 43.1108L22.0358 43.1745Z" fill="white"/>
<path d="M22.9565 16.8747C26.4232 16.8254 29.1925 13.8983 29.1418 10.3368C29.0912 6.77536 26.2398 3.9282 22.7731 3.9775C19.3064 4.0268 16.5372 6.9539 16.5878 10.5154C16.6385 14.0768 19.4898 16.924 22.9565 16.8747Z" fill="#37AABE"/>
<path d="M22.5203 15.3838L22.5076 14.1602C21.8313 14.1602 21.1168 13.9563 20.7085 13.6504L20.9764 12.8347C21.3975 13.1151 22.0227 13.3445 22.6734 13.3317C23.5028 13.319 24.0642 12.8219 24.0515 12.1337C24.0387 11.4709 23.5794 11.063 22.699 10.7189C21.4996 10.2473 20.7468 9.71202 20.734 8.65414C20.7213 7.64725 21.3975 6.88251 22.4821 6.69133L22.4693 5.46776L23.1966 5.45502L23.2093 6.6276C23.9111 6.64035 24.396 6.83153 24.7405 7.02272L24.4598 7.82568C24.2173 7.68548 23.7197 7.43057 22.9797 7.43057C22.0738 7.44332 21.742 8.00412 21.7548 8.48845C21.7675 9.11298 22.2013 9.41887 23.2349 9.83948C24.447 10.3238 25.0722 10.9483 25.085 12.019C25.0977 12.9749 24.4598 13.8798 23.2604 14.0965L23.2731 15.3455L22.5203 15.3838Z" fill="white"/>
<path d="M5.84332 23.3975C8.97885 23.353 11.4835 20.7036 11.4377 17.48C11.3919 14.2563 8.8129 11.6792 5.67737 11.7238C2.54185 11.7684 0.0371492 14.4178 0.082975 17.6414C0.128801 20.865 2.7078 23.4421 5.84332 23.3975Z" fill="#37AABE"/>
<path d="M5.45407 22.0464L5.44131 20.9503C4.82886 20.9503 4.19089 20.7591 3.80811 20.4914L4.05054 19.7522C4.43332 20.0071 4.99473 20.211 5.58167 20.1983C6.33447 20.1855 6.84485 19.7267 6.83209 19.1149C6.81933 18.5159 6.39827 18.1463 5.60718 17.8276C4.52263 17.407 3.84638 16.9099 3.83362 15.9668C3.82086 15.0618 4.43332 14.3608 5.41579 14.1824L5.40303 13.0863L6.06652 13.0735L6.07928 14.1314C6.71725 14.1442 7.15107 14.3099 7.47006 14.4883L7.21487 15.2148C6.9852 15.0873 6.55138 14.8579 5.87513 14.8579C5.05853 14.8707 4.7523 15.3805 4.76506 15.8138C4.77782 16.3874 5.17336 16.655 6.1048 17.0374C7.20211 17.4835 7.76352 18.0443 7.77628 19.013C7.78904 19.8797 7.21487 20.6954 6.13032 20.8865L6.14308 22.0209L5.45407 22.0464Z" fill="white"/>
<defs>
<linearGradient id="paint0_linear" x1="113.704" y1="51.6906" x2="-13.1686" y2="82.2654" gradientUnits="userSpaceOnUse">
<stop stop-color="#C7D3E5"/>
<stop offset="0.3307" stop-color="#DCE7F1"/>
<stop offset="0.7277" stop-color="#F0F9FB"/>
<stop offset="1" stop-color="#F7FFFF"/>
</linearGradient>
<linearGradient id="paint1_linear" x1="88.2039" y1="8.60504" x2="88.2039" y2="49.2342" gradientUnits="userSpaceOnUse">
<stop stop-color="#2EC6BA"/>
<stop offset="0.4238" stop-color="#25B6B2"/>
<stop offset="1" stop-color="#1499A3"/>
</linearGradient>
</defs>
</svg>
