<svg width="113" height="93" viewBox="0 0 113 93" fill="none" xmlns="http://www.w3.org/2000/svg">
<g clip-path="url(#clip0)">
<path d="M93.2424 79.1065C91.3339 81.0863 89.5279 82.3657 88.1042 83.3758C71.3377 95.2411 51.4986 91.7832 47.2822 90.9381C41.0549 89.6923 29.0203 87.2815 20.3179 77.1873C7.15323 61.918 9.20168 37.8642 19.4132 21.9854C21.2807 19.0797 31.1473 2.96192 51.2016 0.376072C63.3386 -1.18958 77.4831 1.96866 87.7287 10.4333C109.234 28.2009 107.701 64.0964 93.2424 79.1065Z" fill="#305263"/>
<path d="M7.9632 31.6326L58.5615 47.8912L52.1728 67.1992L1.57452 50.9406L7.9632 31.6326Z" fill="#016A7B"/>
<path d="M52.6422 68.1051L59.4808 47.4273L7.49084 30.7191L0.644104 51.3982L52.6422 68.1051ZM57.6398 48.3507L51.7072 66.2899L2.50132 50.4722L8.43394 32.533L57.6398 48.3507Z" fill="#42CAE0"/>
<path d="M27.199 57.0756C22.7634 55.6501 20.3412 50.9471 21.7889 46.5712C23.2366 42.1952 28.0059 39.8034 32.4415 41.229C36.8771 42.6545 39.2993 47.3575 37.8516 51.7334C36.4039 56.1093 31.6346 58.5011 27.199 57.0756Z" fill="#1A2B34"/>
<path d="M17.2263 47.3398C16.2099 47.0132 15.6549 45.9355 15.9867 44.9328C16.3184 43.93 17.4112 43.3819 18.4276 43.7086C19.4439 44.0352 19.9989 45.1129 19.6672 46.1156C19.3354 47.1183 18.2426 47.6664 17.2263 47.3398Z" fill="#1A2B34"/>
<path d="M41.6715 55.2008C40.6551 54.8745 40.1003 53.7973 40.4325 52.7947C40.7646 51.7921 41.8579 51.2438 42.8744 51.57C43.8908 51.8962 44.4456 52.9735 44.1134 53.9761C43.7813 54.9787 42.688 55.527 41.6715 55.2008Z" fill="#36B9B1"/>
<path d="M25.6841 1.10628L56.7268 44.1895L39.8241 56.0426L8.78139 12.9594L25.6841 1.10628Z" fill="#016A7B"/>
<path d="M39.6033 57.083L57.7155 44.3695L25.8626 0.112154L7.75048 12.8257L39.6033 57.083ZM55.6587 44.0247L39.9499 55.0538L9.79878 13.1645L25.5076 2.13541L55.6587 44.0247Z" fill="#40C7DF"/>
<path d="M25.7719 33.0837C23.0473 29.305 23.9472 24.0634 27.7819 21.3763C31.6166 18.6892 36.934 19.574 39.6587 23.3527C42.3833 27.1314 41.4834 32.3729 37.6487 35.0601C33.814 37.7472 28.4965 36.8623 25.7719 33.0837Z" fill="#1A2B34"/>
<path d="M26.9376 34.052L28.681 32.8293C29.4086 33.803 30.4573 34.607 31.3164 34.8995L32.1833 33.6804C31.3266 33.3582 30.3621 32.7017 29.6754 31.7507C28.8048 30.5437 28.9267 29.2262 29.9119 28.5376C30.8633 27.8693 31.9311 28.1204 33.3522 29.0176C35.2934 30.27 36.8659 30.7833 38.3631 29.7327C39.801 28.7284 40.1601 26.9616 39.2954 25.2112L41.0388 23.9884L40.2752 22.9326L38.5982 24.1079C37.8296 23.1115 37.0469 22.6087 36.3963 22.3189L35.5608 23.5475C36.027 23.7574 36.91 24.1926 37.694 25.2817C38.6416 26.5934 38.2007 27.6477 37.5077 28.1273C36.6094 28.7577 35.7093 28.4426 34.0185 27.3987C32.0266 26.1547 30.4897 25.8994 28.9527 26.9785C27.5884 27.9342 26.988 29.7696 27.9549 31.7307L26.1583 32.9914L26.9376 34.052Z" fill="#44A0AC"/>
<path d="M23.6333 19.3067C23.0117 18.4439 23.2172 17.2469 24.0922 16.6332C24.9673 16.0195 26.1806 16.2215 26.8022 17.0843C27.4238 17.9471 27.2184 19.144 26.3433 19.7577C25.4682 20.3714 24.2549 20.1695 23.6333 19.3067Z" fill="#1A2B34"/>
<path d="M38.6363 40.1172C38.0147 39.2544 38.2201 38.0575 39.0952 37.4439C39.9703 36.8302 41.1836 37.0322 41.8053 37.895C42.427 38.7577 42.2215 39.9546 41.3464 40.5683C40.4713 41.1819 39.258 40.98 38.6363 40.1172Z" fill="#00212C"/>
<path d="M94.8305 10.5578L77.4414 54.316L94.5616 60.9277L111.951 17.1695L94.8305 10.5578Z" fill="#016A7B"/>
<path d="M94.9279 61.7624L76.595 54.6794L94.4607 9.71622L112.799 16.7945L94.9279 61.7624ZM78.2862 53.948L94.1909 60.0931L111.097 17.5354L95.1922 11.3903L78.2862 53.948Z" fill="#42CAE0"/>
<path d="M101.677 38.1361C103.202 34.3001 101.292 29.9756 97.4122 28.4772C93.5322 26.9787 89.151 28.8737 87.6266 32.7098C86.1022 36.5458 88.0118 40.8702 91.8919 42.3687C95.7719 43.8671 100.153 41.9721 101.677 38.1361Z" fill="#1A2B34"/>
<path d="M100.817 39.3647L99.0675 38.6425C98.6328 39.6285 97.8885 40.5312 97.2069 40.9558L96.2145 40.0676C96.8875 39.6217 97.5931 38.8649 97.9997 37.9021C98.5019 36.6802 98.1375 35.5634 97.1442 35.1586C96.1913 34.7676 95.3176 35.1911 94.2683 36.2526C92.8355 37.7181 91.5901 38.4695 90.0804 37.8504C88.6412 37.2579 87.9745 35.7961 88.3773 34.1078L86.6273 33.3856L87.0739 32.3234L88.7591 33.0143C89.2274 32.0003 89.7987 31.4119 90.2995 31.0334L91.2648 31.9346C90.9032 32.2069 90.2315 32.7558 89.771 33.8579C89.2186 35.1783 89.8059 36.0058 90.4978 36.2919C91.3954 36.6627 92.1153 36.2157 93.3672 34.9762C94.8366 33.5087 96.1138 32.9864 97.6582 33.6239C99.0271 34.1897 99.9168 35.6554 99.4699 37.5508L101.275 38.2932L100.817 39.3647Z" fill="#44A0AC"/>
<path d="M100.541 25.8015C100.89 24.9225 100.453 23.9316 99.5635 23.5883C98.6744 23.2449 97.6705 23.6791 97.3212 24.5581C96.9719 25.437 97.4095 26.4279 98.2986 26.7713C99.1876 27.1147 100.192 26.6805 100.541 25.8015Z" fill="#1A2B34"/>
<path d="M33.2107 48.1033V55.1118C33.2107 56.4512 32.0978 57.5501 30.7413 57.5501H25.653C24.2965 57.5501 23.1836 56.4512 23.1836 55.1118V48.1033C23.1836 46.7639 24.2965 45.6651 25.653 45.6651H30.7413C32.0978 45.6596 33.2107 46.7584 33.2107 48.1033Z" fill="#76D4E3"/>
<path d="M33.2107 48.1033V52.0067C33.2107 53.346 32.0978 54.4449 30.7413 54.4449H25.653C24.2965 54.4449 23.1836 53.346 23.1836 52.0067V48.1033C23.1836 46.7639 24.2965 45.6651 25.653 45.6651H30.7413C32.0978 45.6596 33.2107 46.7584 33.2107 48.1033Z" fill="#AAEDF8"/>
<path d="M89.5694 51.6077C89.5694 55.1939 88.8274 58.6162 87.4875 61.7324C83.4623 71.0862 74.0553 77.6902 63.1588 77.6902H55.6011C45.9616 77.6902 37.4792 72.524 32.867 64.854C30.5305 60.967 29.1851 56.4349 29.1851 51.6077C29.1851 48.0214 29.927 44.5991 31.2669 41.483C35.2921 32.1291 44.6992 25.5306 55.5956 25.5306H63.1478C73.0586 25.5306 81.7348 30.992 86.2528 39.0119C88.3679 42.7458 89.5694 47.0428 89.5694 51.6077Z" fill="#76D5E3"/>
<path d="M86.2584 39.0064C86.884 42.0132 86.3913 46.3156 85.5884 48.5899C80.2565 63.7277 67.7267 66.4611 54.9201 67.6147C45.8121 68.4347 32.867 64.8484 32.867 64.8484C30.5305 60.9614 29.1851 56.4294 29.1851 51.6021C29.1851 48.0158 29.927 44.5936 31.2669 41.4774C35.2921 32.1236 44.6992 25.525 55.5956 25.525H63.1478C73.0642 25.525 81.7459 30.981 86.2584 39.0064Z" fill="#AAEDF8"/>
<path d="M52.4899 32.058H42.0974C41.0509 32.058 40.1982 31.4293 40.1982 30.653V16.6469C40.1982 16.4063 40.2758 16.1876 40.4031 16.0018C40.9125 15.2747 42.2469 14.974 43.2379 15.5316C47.1801 17.7402 53.6471 22.5402 54.3724 30.5601C54.4555 31.3692 53.5862 32.058 52.4899 32.058Z" fill="#AAEDF8"/>
<path d="M42.5182 32.0582H42.0974C41.0509 32.0582 40.1982 31.4295 40.1982 30.6532V16.647C40.1982 16.4064 40.2758 16.1878 40.4031 16.0019C40.4474 16.0402 40.4917 16.0784 40.5305 16.1276C42.7895 18.6096 46.0396 23.4806 45.126 30.3088C44.9986 31.3037 43.8691 32.0582 42.5182 32.0582Z" fill="#76D4E3"/>
<path d="M38.5923 42.954C39.4485 42.954 40.1426 42.2686 40.1426 41.4231C40.1426 40.5776 39.4485 39.8922 38.5923 39.8922C37.7361 39.8922 37.042 40.5776 37.042 41.4231C37.042 42.2686 37.7361 42.954 38.5923 42.954Z" fill="#1A2B34"/>
<path d="M67.6217 66.6142L65.1578 82.4136C64.8312 83.6381 65.7669 84.8354 67.0459 84.8354H73.5239C74.9137 84.8354 76.1816 84.07 76.8183 82.8509L86.8842 63.028L67.6217 66.6142Z" fill="#76D5E3"/>
<path d="M52.883 66.8876L54.8597 82.4136C55.1863 83.6382 54.2506 84.8354 52.9716 84.8354H46.4936C45.1038 84.8354 43.8359 84.07 43.1992 82.8509L32.873 64.8484L52.883 66.8876Z" fill="#76D5E3"/>
<path d="M95.8651 58.6981C95.7156 58.6981 95.5661 58.6817 95.4221 58.6434C94.276 58.3428 93.6171 56.9924 93.7057 55.1118C93.7943 53.2695 94.575 51.3233 95.8485 49.7707C96.4132 49.0818 97.061 48.4859 97.7919 47.9775C97.4486 47.4199 96.989 46.8841 96.3634 46.4249C95.3059 45.6432 94.2096 45.4135 93.0192 45.7361C89.8189 46.5944 87.1059 51.1101 86.8844 51.6185C86.7847 51.8918 86.4857 52.034 86.2034 51.941C85.921 51.8481 85.7659 51.5474 85.8601 51.2631C85.9542 50.9788 86.746 49.634 87.8533 48.2946C89.7801 45.9657 91.4578 45.0855 92.5319 44.7521C94.121 44.26 95.627 44.5334 97.0112 45.5612C97.6978 46.0696 98.268 46.6873 98.7054 47.398C99.8017 46.7912 101.042 46.3757 102.387 46.157C102.681 46.1078 102.963 46.3047 103.008 46.5999C103.057 46.8896 102.858 47.1684 102.559 47.2122C101.324 47.4144 100.195 47.7971 99.1927 48.3547C99.4972 49.0873 99.6965 49.8909 99.7685 50.7602C99.9235 52.5478 99.5636 54.505 98.7719 56.1232C97.9691 57.7687 96.906 58.6981 95.8651 58.6981ZM98.268 48.9506C97.6811 49.3825 97.1496 49.88 96.6901 50.4431C95.5605 51.8208 94.8629 53.5374 94.7854 55.161C94.7245 56.4457 95.0955 57.4517 95.6934 57.6102C96.2969 57.7687 97.1662 56.9651 97.8029 55.664C98.5006 54.2371 98.8383 52.4385 98.6999 50.8586C98.6445 50.2846 98.5283 49.6231 98.268 48.9506ZM86.8899 51.5966C86.8899 51.6021 86.8899 51.6021 86.8844 51.6075C86.8844 51.6021 86.8899 51.6021 86.8899 51.5966Z" fill="#AAEDF8"/>
<path d="M61.5369 30.577C61.3708 30.7027 61.1936 30.823 61.0109 30.9323C60.9389 30.9761 60.8669 31.0143 60.7949 31.0581C60.6067 31.1619 60.4184 31.2494 60.2246 31.3314C60.1693 31.3205 60.1139 31.3095 60.0585 31.3041C59.7097 31.2439 59.3609 31.1947 59.0176 31.1455C58.846 31.1237 58.6799 31.0963 58.5138 31.0745C57.8161 30.9815 57.1462 30.9105 56.5095 30.8503C56.3378 30.8339 56.1662 30.8175 56.0001 30.8066C55.8672 30.7956 55.7398 30.7847 55.607 30.7738C55.2914 30.7519 54.9868 30.73 54.6934 30.7136C54.2837 30.4239 53.9016 30.0795 53.575 29.6859C53.359 29.4235 53.1597 29.1337 52.9881 28.8276C51.4544 26.0832 52.4676 22.6336 55.2471 21.1192C55.319 21.081 55.3966 21.0427 55.4685 21.0044C58.2093 19.6596 61.5646 20.6764 63.054 23.3497C64.4381 25.8372 63.7405 28.8986 61.5369 30.577Z" fill="#7F86FF"/>
<path d="M60.5846 26.6414C60.485 26.4008 60.3576 26.2095 60.2026 26.0673C60.0476 25.9251 59.8593 25.8213 59.6545 25.7502C59.4441 25.6791 59.2115 25.6354 58.9568 25.619C58.7021 25.6026 58.4198 25.5971 58.1208 25.608C57.9325 25.6135 57.7775 25.608 57.6446 25.5971C57.5117 25.5862 57.401 25.5588 57.3069 25.526C57.2127 25.4877 57.1408 25.4385 57.0798 25.3729C57.0245 25.3073 56.9746 25.2308 56.9359 25.1433C56.8971 25.0503 56.875 24.9629 56.8694 24.8699C56.8639 24.7824 56.875 24.6949 56.9082 24.6129C56.9414 24.5309 56.9968 24.4598 57.0688 24.3888C57.1408 24.3177 57.2404 24.263 57.3622 24.2138C57.5837 24.1263 57.7941 24.1263 57.9879 24.2193C58.1817 24.3122 58.3422 24.5091 58.464 24.8043L59.6323 24.3341C59.5327 24.088 59.4053 23.8748 59.2503 23.7053C59.0952 23.5358 58.9236 23.4046 58.7298 23.3117C58.536 23.2187 58.3256 23.164 58.1042 23.1476C57.8771 23.1312 57.6446 23.1531 57.3954 23.2187L57.0632 22.415L56.4154 22.6774L56.7421 23.4702C56.5096 23.5905 56.3102 23.7272 56.1497 23.8912C55.9891 24.0498 55.8617 24.2247 55.7732 24.4052C55.6846 24.5911 55.6403 24.7824 55.6347 24.9902C55.6292 25.1925 55.6735 25.4003 55.7566 25.6135C55.8562 25.8541 55.9836 26.0509 56.1441 26.1876C56.2992 26.3297 56.4819 26.4336 56.6923 26.5047C56.8971 26.5758 57.1352 26.6141 57.3899 26.6305C57.6501 26.6469 57.927 26.6414 58.2315 26.6305C58.4087 26.6195 58.5582 26.6195 58.6855 26.6359C58.8129 26.6469 58.9236 26.6742 59.0177 26.707C59.1119 26.7453 59.1894 26.7945 59.2503 26.8656C59.3112 26.9312 59.3665 27.0187 59.4053 27.1225C59.4441 27.2155 59.4607 27.3084 59.4607 27.3959C59.4607 27.4889 59.4385 27.5763 59.3998 27.6584C59.3555 27.7404 59.2946 27.8169 59.2115 27.888C59.1285 27.9591 59.0233 28.0192 58.8959 28.0684C58.7852 28.1122 58.6689 28.1395 58.5526 28.1559C58.4364 28.1723 58.3201 28.1614 58.2038 28.1231C58.0931 28.0848 57.9879 28.0192 57.8882 27.9208C57.7886 27.8224 57.7055 27.6857 57.6335 27.5107L56.4597 27.9809C56.5815 28.2762 56.7366 28.5113 56.9193 28.6863C57.102 28.8612 57.3069 28.987 57.5283 29.0581C57.7498 29.1346 57.9768 29.1674 58.2149 29.1565C58.453 29.1455 58.6911 29.1073 58.9236 29.0417L59.2281 29.7798L59.8704 29.5228L59.5659 28.7847C59.7984 28.6644 59.9977 28.5277 60.1694 28.3691C60.3355 28.2106 60.4628 28.0411 60.5514 27.8607C60.64 27.6802 60.6843 27.4834 60.6898 27.2811C60.712 27.0733 60.6732 26.8601 60.5846 26.6414Z" fill="white"/>
<path d="M67.8431 32.5066C67.7656 32.7526 67.4999 32.9112 67.223 32.8292C64.7259 32.0582 62.0849 31.5497 59.477 31.2545C56.6145 30.9319 53.6966 30.8663 52.318 30.9593C52.0467 30.9757 51.8086 30.7734 51.792 30.5C51.7753 30.2321 51.9802 29.997 52.257 29.9806C54.3943 29.8548 57.4007 30.0188 59.6708 30.2867C62.2731 30.5875 64.9695 31.1069 67.5109 31.8887C67.7767 31.9762 67.9207 32.2496 67.8431 32.5066Z" fill="#1A2B34"/>
<path d="M42.1554 89.9768C42.1824 88.3067 37.3353 86.875 31.3289 86.7792C25.3226 86.6834 20.4315 87.9596 20.4045 89.6298C20.3774 91.3 25.2246 92.7316 31.2309 92.8275C37.2372 92.9233 42.1283 91.647 42.1554 89.9768Z" fill="#043647"/>
<path d="M42.1519 89.975L42.2421 88.0417L40.264 88.3026L20.495 87.6978L20.4048 89.631L26.8622 91.7244L36.0793 90.7222L42.1519 89.975Z" fill="#043647"/>
<path d="M42.2427 88.0445C42.2698 86.3743 37.4226 84.9427 31.4163 84.8469C25.4099 84.7512 20.5189 86.0275 20.4918 87.6977C20.4648 89.3678 25.312 90.7994 31.3183 90.8952C37.3247 90.991 42.2157 89.7147 42.2427 88.0445Z" fill="#25B4CB"/>
<path d="M23.0328 87.5435L25.083 87.5732C25.1071 87.247 25.4798 86.9149 25.9909 86.7252L27.3497 86.8853C26.8567 87.081 26.4659 87.3656 26.4599 87.6859C26.4539 88.0891 27.2836 88.3738 28.444 88.3916C29.5623 88.4094 30.2598 88.2018 30.873 87.7926C31.6967 87.2292 32.6347 86.8853 34.4023 86.9149C36.0918 86.9446 37.3665 87.2945 37.6611 87.8223L39.7113 87.8519L39.7053 88.2018L37.7332 88.1721C37.6851 88.5102 37.3605 88.7355 37.0118 88.8956L35.671 88.7355C35.9175 88.6228 36.3684 88.3975 36.3744 88.0357C36.3804 87.6028 35.4485 87.4249 34.6368 87.4071C33.5786 87.3893 33.0495 87.591 32.31 88.0713C31.4442 88.6406 30.386 88.9194 28.5763 88.8897C26.9709 88.866 25.4738 88.528 25.1371 87.9409L23.0208 87.9053L23.0328 87.5435Z" fill="white"/>
<path d="M39.942 85.8832C39.969 84.2131 35.1219 82.7814 29.1155 82.6856C23.1092 82.5898 18.2182 83.866 18.1911 85.5362C18.164 87.2064 23.0112 88.638 29.0175 88.7339C35.0239 88.8297 39.9149 87.5534 39.942 85.8832Z" fill="#043647"/>
<path d="M39.939 85.8839L40.0292 83.9566L38.0511 84.2116L18.2821 83.6126L18.1919 85.54L24.6493 87.6393L33.8664 86.6311L39.939 85.8839Z" fill="#043647"/>
<path d="M40.0352 83.9568C40.0623 82.2866 35.2151 80.855 29.2088 80.7592C23.2025 80.6633 18.3114 81.9396 18.2844 83.6098C18.2573 85.28 23.1045 86.7116 29.1108 86.8074C35.1171 86.9033 40.0082 85.627 40.0352 83.9568Z" fill="#25B4CB"/>
<path d="M20.8199 83.4525L22.8701 83.4822C22.8942 83.156 23.267 82.8239 23.778 82.6342L25.1368 82.7943C24.6438 82.99 24.253 83.2746 24.247 83.5949C24.241 83.9981 25.0707 84.2828 26.2311 84.3006C27.3494 84.3184 28.0469 84.1108 28.6601 83.7016C29.4838 83.1382 30.4218 82.7943 32.1895 82.8239C33.879 82.8536 35.1536 83.2035 35.4482 83.7313L37.4985 83.7609L37.4924 84.1108L35.5204 84.0811C35.4723 84.4192 35.1476 84.6445 34.7989 84.8046L33.4581 84.6445C33.7046 84.5318 34.1555 84.3065 34.1615 83.9447C34.1676 83.5118 33.2356 83.3339 32.4239 83.3161C31.3657 83.2983 30.8366 83.5 30.0971 83.9803C29.2313 84.5496 28.1731 84.8284 26.3634 84.7987C24.758 84.775 23.2609 84.437 22.9242 83.8499L20.8079 83.8143L20.8199 83.4525Z" fill="white"/>
<path d="M42.5494 83.3464C42.5765 81.6763 37.7293 80.2446 31.723 80.1488C25.7166 80.053 20.8256 81.3293 20.7985 82.9994C20.7715 84.6696 25.6186 86.1013 31.625 86.1971C37.6313 86.2929 42.5223 85.0166 42.5494 83.3464Z" fill="#043647"/>
<path d="M42.5493 83.3397L42.6395 81.4124L40.6614 81.6733L20.8924 81.0684L20.8022 82.9958L27.2596 85.0951L36.4767 84.0929L42.5493 83.3397Z" fill="#043647"/>
<path d="M42.6427 81.4143C42.6697 79.7441 37.8226 78.3125 31.8162 78.2166C25.8099 78.1208 20.9188 79.3971 20.8918 81.0673C20.8647 82.7374 25.7119 84.1691 31.7182 84.2649C37.7246 84.3607 42.6156 83.0845 42.6427 81.4143Z" fill="#25B4CB"/>
<path d="M23.4294 80.9144L25.4796 80.9441C25.5037 80.6179 25.8764 80.2858 26.3875 80.0961L27.7463 80.2562C27.2533 80.4519 26.8625 80.7365 26.8565 81.0568C26.8504 81.46 27.6802 81.7447 28.8406 81.7625C29.9589 81.7803 30.6563 81.5727 31.2696 81.1635C32.0933 80.6001 33.0313 80.2562 34.7989 80.2858C36.4884 80.3155 37.7631 80.6654 38.0577 81.1932L40.1139 81.2228L40.1079 81.5727L38.1358 81.5431C38.0877 81.8811 37.7631 82.1064 37.4143 82.2665L36.0736 82.1064C36.3201 81.9938 36.771 81.7684 36.777 81.4067C36.783 80.9737 35.8511 80.7958 35.0394 80.7781C33.9812 80.7603 33.4521 80.9619 32.7126 81.4422C31.8468 82.0115 30.7886 82.2903 28.9789 82.2606C27.3735 82.2369 25.8764 81.8989 25.5397 81.3118L23.4233 81.2703L23.4294 80.9144Z" fill="white"/>
<path d="M42.565 80.4701C42.5921 78.7999 37.7449 77.3682 31.7386 77.2724C25.7323 77.1766 20.8412 78.4529 20.8141 80.123C20.7871 81.7932 25.6342 83.2249 31.6406 83.3207C37.6469 83.4165 42.538 82.1403 42.565 80.4701Z" fill="#043647"/>
<path d="M42.5669 80.4642L42.6571 78.5368L40.679 78.7978L20.91 78.1929L20.8198 80.1202L27.2772 82.2195L36.4943 81.2173L42.5669 80.4642Z" fill="#043647"/>
<path d="M42.6583 78.5375C42.6854 76.8673 37.8382 75.4357 31.8319 75.3398C25.8255 75.244 20.9345 76.5203 20.9074 78.1905C20.8803 79.8606 25.7275 81.2923 31.7338 81.3881C37.7402 81.4839 42.6312 80.2077 42.6583 78.5375Z" fill="#25B4CB"/>
<path d="M23.4472 78.0391L25.5034 78.0688C25.5275 77.7426 25.9003 77.4105 26.4113 77.2208L27.7701 77.3809C27.2771 77.5766 26.8863 77.8612 26.8803 78.1815C26.8743 78.5847 27.704 78.8694 28.8644 78.8872C29.9827 78.905 30.6802 78.6974 31.2934 78.2882C32.1171 77.7248 33.0551 77.3809 34.8228 77.4105C36.5123 77.4402 37.7869 77.7901 38.0815 78.3179L40.1318 78.3475L40.1257 78.6974L38.1537 78.6678C38.1056 79.0058 37.7809 79.2311 37.4322 79.3912L36.0914 79.2311C36.3379 79.1185 36.7888 78.8931 36.7948 78.5314C36.8009 78.0984 35.8689 77.9205 35.0572 77.9027C33.999 77.885 33.4699 78.0866 32.7304 78.5669C31.8646 79.1362 30.8064 79.415 28.9967 79.3853C27.3913 79.3616 25.8942 79.0236 25.5575 78.4365L23.4412 78.395L23.4472 78.0391Z" fill="white"/>
<path d="M42.5811 77.7299C42.6082 76.0597 37.7611 74.6281 31.7547 74.5322C25.7484 74.4364 20.8573 75.7127 20.8303 77.3829C20.8032 79.0531 25.6504 80.4847 31.6567 80.5805C37.663 80.6763 42.5541 79.4 42.5811 77.7299Z" fill="#043647"/>
<path d="M42.5786 77.7301L42.6688 75.8028L40.6907 76.0637L20.9217 75.4588L20.8315 77.3861L27.2889 79.4855L36.506 78.4832L42.5786 77.7301Z" fill="#043647"/>
<path d="M42.6744 75.8032C42.7015 74.1331 37.8543 72.7014 31.848 72.6056C25.8416 72.5098 20.9506 73.7861 20.9235 75.4563C20.8965 77.1265 25.7436 78.5581 31.75 78.6539C37.7563 78.7497 42.6473 77.4734 42.6744 75.8032Z" fill="#25B4CB"/>
<path d="M23.4593 75.2991L25.5095 75.3287C25.5336 75.0026 25.9064 74.6705 26.4174 74.4807L27.7762 74.6408C27.2832 74.8365 26.8924 75.1212 26.8864 75.4414C26.8804 75.8447 27.7101 76.1293 28.8705 76.1471C29.9888 76.1649 30.6863 75.9574 31.2995 75.5482C32.1233 74.9848 33.0612 74.6408 34.8289 74.6705C36.5184 74.7001 37.793 75.05 38.0876 75.5778L40.1379 75.6075L40.1318 75.9574L38.1598 75.9277C38.1117 76.2657 37.787 76.4911 37.4383 76.6512L36.0975 76.4911C36.344 76.3784 36.7949 76.153 36.8009 75.7913C36.807 75.3584 35.875 75.1805 35.0633 75.1627C34.0052 75.1449 33.4761 75.3465 32.7365 75.8269C31.8707 76.3962 30.8125 76.6749 29.0028 76.6453C27.3975 76.6215 25.9004 76.2835 25.5637 75.6964L23.4473 75.6608L23.4593 75.2991Z" fill="white"/>
<path d="M40.1432 75.5688C40.1702 73.8986 35.3231 72.467 29.3167 72.3711C23.3104 72.2753 18.4193 73.5516 18.3923 75.2218C18.3652 76.892 23.2124 78.3236 29.2187 78.4194C35.225 78.5152 40.1161 77.239 40.1432 75.5688Z" fill="#043647"/>
<path d="M40.1377 75.5732L40.2279 73.6399L38.2498 73.9008L18.4808 73.2959L18.3906 75.2233L24.848 77.3226L34.0651 76.3204L40.1377 75.5732Z" fill="#043647"/>
<path d="M40.2301 73.6421C40.2571 71.9719 35.41 70.5403 29.4036 70.4445C23.3973 70.3487 18.5063 71.625 18.4792 73.2952C18.4521 74.9654 23.2993 76.397 29.3056 76.4928C35.312 76.5886 40.203 75.3123 40.2301 73.6421Z" fill="#25B4CB"/>
<path d="M21.0186 73.1418L23.0689 73.1715C23.0929 72.8453 23.4657 72.5132 23.9767 72.3234L25.3356 72.4835C24.8425 72.6792 24.4517 72.9639 24.4457 73.2841C24.4397 73.6874 25.2694 73.972 26.4298 73.9898C27.5482 74.0076 28.2456 73.8001 28.8589 73.3909C29.6826 72.8275 30.6205 72.4835 32.3882 72.5132C34.0777 72.5428 35.3523 72.8927 35.6469 73.4205L37.6972 73.4502L37.6912 73.8001L35.7191 73.7704C35.671 74.1084 35.3463 74.3338 34.9976 74.4939L33.6568 74.3338C33.9033 74.2211 34.3543 73.9958 34.3603 73.634C34.3663 73.2011 33.4344 73.0232 32.6227 73.0054C31.5645 72.9876 31.0354 73.1892 30.2958 73.6696C29.4301 74.2389 28.3719 74.5176 26.5621 74.488C24.9568 74.4643 23.4597 74.1262 23.123 73.5391L21.0066 73.5035L21.0186 73.1418Z" fill="white"/>
<path d="M43.4938 70.9516C43.5209 69.2815 38.6737 67.8498 32.6674 67.7539C26.661 67.658 21.77 68.9343 21.7429 70.6045C21.7158 72.2746 26.5629 73.7063 32.5693 73.8022C38.5756 73.8981 43.4667 72.6218 43.4938 70.9516Z" fill="#043647"/>
<path d="M43.4868 70.9532L43.583 69.0199L41.5989 69.2809L21.8359 68.676L21.7397 70.6092L28.2031 72.7026L37.4202 71.7004L43.4868 70.9532Z" fill="#043647"/>
<path d="M43.5811 69.0261C43.6082 67.3559 38.761 65.9243 32.7547 65.8284C26.7484 65.7326 21.8573 67.0089 21.8303 68.6791C21.8032 70.3493 26.6504 71.7809 32.6567 71.8767C38.663 71.9726 43.5541 70.6963 43.5811 69.0261Z" fill="#25B4CB"/>
<path d="M24.3738 68.5222L26.424 68.5519C26.4481 68.2257 26.8209 67.8936 27.3319 67.7039L28.6907 67.864C28.1977 68.0597 27.8069 68.3443 27.8009 68.6646C27.7949 69.0678 28.6246 69.3525 29.785 69.3703C30.9033 69.3881 31.6008 69.1805 32.214 68.7713C33.0377 68.2079 33.9757 67.864 35.7433 67.8936C37.4328 67.9233 38.7075 68.2732 39.0021 68.801L41.0524 68.8306L41.0463 69.1805L39.0863 69.1449C39.0382 69.4829 38.7135 69.7083 38.3648 69.8684L37.024 69.7083C37.2705 69.5956 37.7214 69.3703 37.7275 69.0085C37.7335 68.5756 36.8015 68.3977 35.9899 68.3799C34.9317 68.3621 34.4026 68.5637 33.663 69.0441C32.7972 69.6134 31.739 69.8921 29.9293 69.8625C28.324 69.8388 26.8269 69.5007 26.4902 68.9136L24.3738 68.8781V68.5222Z" fill="white"/>
<path d="M82.1568 19.2048C86.806 16.6742 88.4972 10.9014 85.9343 6.31096C83.3714 1.72048 77.5248 0.0505988 72.8756 2.58118C68.2264 5.11176 66.5352 10.8845 69.0981 15.475C71.6611 20.0655 77.5077 21.7354 82.1568 19.2048Z" fill="#043647"/>
<path d="M81.7754 19.3985C81.6591 19.4695 81.5373 19.5406 81.4155 19.6062C81.3768 19.6281 81.3325 19.6499 81.2937 19.6718C81.1996 19.721 81.1055 19.7702 81.0113 19.8139C76.4324 22.0335 70.8513 20.3278 68.3598 15.8723C65.9845 11.6191 67.2635 6.35445 71.1558 3.5882C71.4659 3.36953 71.7926 3.16179 72.1358 2.97591C72.2577 2.91031 72.385 2.84471 72.5068 2.78457C72.6286 2.72444 72.7504 2.66977 72.8722 2.6151C73.2487 2.45109 73.6308 2.30895 74.0184 2.19415C74.5942 2.02467 75.1755 1.90987 75.7569 1.84974C77.5674 1.65839 79.3891 1.9864 81.0058 2.76817C82.7222 3.59367 84.2005 4.93306 85.1916 6.7098C87.6887 11.1817 86.155 16.7689 81.7754 19.3985Z" fill="#7F86FF"/>
<path d="M81.0669 12.2142C81.0503 12.165 81.0281 12.1213 81.006 12.0776C80.851 11.7386 80.6572 11.4653 80.4246 11.2575C80.1589 11.0225 79.8543 10.842 79.5055 10.7218C79.1567 10.6015 78.7691 10.5304 78.3372 10.5031C77.9054 10.4758 77.4403 10.4703 76.9364 10.4867C76.6264 10.4976 76.3606 10.4922 76.1391 10.4703C75.9177 10.4484 75.7294 10.4102 75.5744 10.35C75.4194 10.2899 75.2976 10.2024 75.1979 10.0985C75.1038 9.99467 75.0207 9.86347 74.9598 9.7104C74.8989 9.55732 74.8601 9.40425 74.8491 9.25665C74.838 9.10357 74.8601 8.96143 74.9155 8.82476C74.9709 8.68809 75.0595 8.56235 75.1813 8.44755C75.3031 8.33274 75.4692 8.23434 75.6741 8.15233C76.0506 7.99926 76.3994 8.00473 76.726 8.16327C77.0527 8.32181 77.3129 8.64982 77.5178 9.14184L79.4778 8.35461C79.3062 7.93913 79.0958 7.58924 78.8356 7.30496C78.5809 7.02069 78.2874 6.79654 77.9663 6.64347C77.6452 6.4904 77.2963 6.39746 76.9143 6.37013C76.5378 6.34279 76.1391 6.38106 75.735 6.4904L75.1813 5.14008L74.0961 5.57743L74.6442 6.90588C74.2511 7.10816 73.9189 7.33776 73.6476 7.60564C73.3763 7.87352 73.1659 8.1578 73.0219 8.46941C72.878 8.78103 72.8005 9.10357 72.7894 9.44252C72.7838 9.78146 72.8503 10.1313 72.9942 10.4812C73.1603 10.8858 73.3763 11.2083 73.642 11.4434C73.9078 11.6785 74.2123 11.8589 74.5612 11.9737C74.91 12.0885 75.2975 12.1596 75.7294 12.1814C76.1613 12.2033 76.6264 12.2033 77.1358 12.1814C77.4292 12.165 77.6839 12.165 77.8998 12.1869C78.1158 12.2088 78.304 12.247 78.4591 12.3072C78.6141 12.3673 78.747 12.4548 78.8522 12.5696C78.9574 12.6844 79.046 12.8265 79.1179 13.0015C79.1788 13.1545 79.2121 13.3076 79.2121 13.4607C79.2121 13.6138 79.1788 13.7559 79.1069 13.898C79.0404 14.0347 78.9352 14.1659 78.7968 14.2862C78.6584 14.4065 78.4812 14.5049 78.2708 14.5923C78.0881 14.6689 77.8943 14.7181 77.695 14.7399C77.4957 14.7618 77.3019 14.7454 77.1136 14.6853C76.9254 14.6251 76.7482 14.5103 76.5821 14.3463C76.416 14.1823 76.272 13.9527 76.1558 13.663L74.1957 14.4502C74.4006 14.9477 74.6553 15.3413 74.9653 15.631C75.2754 15.9208 75.6131 16.1285 75.9786 16.2543C76.344 16.38 76.7316 16.4347 77.1302 16.4183C77.5289 16.4019 77.9275 16.3363 78.3151 16.2269L78.819 17.457L79.8986 17.0251L79.3892 15.7896C79.7824 15.5873 80.1146 15.3577 80.3969 15.0953C80.6572 14.8547 80.8565 14.5923 81.006 14.3135C81.0171 14.2917 81.0281 14.2698 81.0392 14.2479C81.1887 13.9418 81.2662 13.6192 81.2773 13.2748C81.2884 12.9359 81.2164 12.5805 81.0669 12.2142Z" fill="white"/>
</g>
<defs>
<clipPath id="clip0">
<rect width="113" height="93" rx="3" fill="white"/>
</clipPath>
</defs>
</svg>
