<svg width="130" height="101" viewBox="0 0 130 101" fill="none" xmlns="http://www.w3.org/2000/svg">
<g clip-path="url(#clip0)">
<path d="M104.22 86.2513C102.212 88.3558 100.311 89.7159 98.8134 90.7897C81.1716 103.403 60.2968 99.7269 55.8603 98.8286C49.308 97.5043 36.6451 94.9416 27.4884 84.2111C13.6365 67.9795 15.7918 42.4097 26.5364 25.5302C28.5014 22.4413 38.8831 5.30769 59.9843 2.55887C72.7549 0.89454 87.6378 4.25183 98.4182 13.2499C121.046 32.1374 119.433 70.2952 104.22 86.2513Z" fill="#305263"/>
<path d="M46.1975 56.2143L97.9041 73.0036L91.3766 92.9382L39.67 76.149L46.1975 56.2143Z" fill="#016A7B"/>
<path d="M91.8547 93.8733L98.8433 72.5248L45.7135 55.2746L38.7166 76.6245L91.8547 93.8733ZM96.9619 73.4781L90.8992 91.9991L40.6146 75.6684L46.6773 57.1474L96.9619 73.4781Z" fill="#42CAE0"/>
<path d="M65.8551 82.485C61.3223 81.0132 58.8469 76.1576 60.3263 71.6397C61.8057 67.1218 66.6795 64.6525 71.2123 66.1243C75.7451 67.5961 78.2204 72.4518 76.7411 76.9696C75.2617 81.4875 70.3879 83.9569 65.8551 82.485Z" fill="#1A2F38"/>
<path d="M65.8518 82.0851L66.5523 80.0362C65.3821 79.6166 64.2847 78.8379 63.7433 78.094L64.6926 76.8954C65.2578 77.628 66.1842 78.3737 67.3253 78.7632C68.7727 79.2416 70.0332 78.7408 70.4248 77.5783C70.8036 76.4628 70.2491 75.4999 68.9453 74.386C67.1465 72.8661 66.1857 71.5049 66.7854 69.7377C67.3598 68.0528 68.9953 67.1813 70.973 67.5108L71.6735 65.4619L72.9323 65.8892L72.2631 67.8619C73.468 68.3176 74.1899 68.9233 74.6644 69.4649L73.698 70.6335C73.3567 70.2424 72.6727 69.5193 71.3668 69.0793C69.802 68.5512 68.8921 69.2836 68.6145 70.0938C68.2548 71.1446 68.8249 71.9305 70.3492 73.2616C72.153 74.823 72.8521 76.2381 72.2337 78.0462C71.6848 79.6489 70.0617 80.7749 67.8418 80.411L67.1223 82.5245L65.8518 82.0851Z" fill="#44A0AC"/>
<path d="M55.6637 72.4336C54.6253 72.0965 54.0582 70.9841 54.3972 69.949C54.7362 68.9139 55.8529 68.348 56.8914 68.6851C57.9299 69.0223 58.4969 70.1347 58.1579 71.1698C57.8189 72.2049 56.7022 72.7707 55.6637 72.4336Z" fill="#1A2F38"/>
<path d="M80.6454 80.55C79.6068 80.2132 79.0399 79.1011 79.3792 78.0661C79.7186 77.0311 80.8356 76.4651 81.8741 76.8019C82.9127 77.1387 83.4796 78.2508 83.1403 79.2858C82.8009 80.3208 81.6839 80.8868 80.6454 80.55Z" fill="#36B9B1"/>
<path d="M64.3085 24.6993L96.0291 69.1818L78.7565 81.4204L47.0359 36.9379L64.3085 24.6993Z" fill="#016A7B"/>
<path d="M78.5759 82.4682L97.0799 69.3601L64.4849 23.6542L45.981 36.7623L78.5759 82.4682ZM94.9773 69.0026L78.9286 80.374L48.075 37.1136L64.1236 25.7422L94.9773 69.0026Z" fill="#40C7DF"/>
<path d="M64.3962 57.7165C61.6121 53.8151 62.5318 48.4032 66.4504 45.6287C70.369 42.8542 75.8027 43.7677 78.5868 47.6691C81.3709 51.5705 80.4513 56.9824 76.5326 59.7569C72.614 62.5315 67.1804 61.6179 64.3962 57.7165Z" fill="#1A2F38"/>
<path d="M65.5868 58.7147L67.3684 57.4523C68.112 58.4575 69.1836 59.2877 70.0616 59.5896L70.9475 58.331C70.072 57.9984 69.0863 57.3206 68.3846 56.3387C67.4949 55.0926 67.6195 53.7323 68.6263 53.0214C69.5986 52.3314 70.6898 52.5906 72.142 53.517C74.1258 54.8099 75.7328 55.3399 77.2628 54.2552C78.7323 53.2184 79.0992 51.3943 78.2155 49.5871L79.9972 48.3247L79.2168 47.2346L77.503 48.448C76.7176 47.4193 75.9177 46.9002 75.2529 46.601L74.399 47.8695C74.8755 48.0862 75.7778 48.5355 76.579 49.6599C77.5474 51.0142 77.0968 52.1027 76.3886 52.5978C75.4706 53.2486 74.5508 52.9233 72.8229 51.8456C70.7873 50.5612 69.2168 50.2977 67.6461 51.4118C66.2519 52.3984 65.6383 54.2934 66.6264 56.3181L64.7904 57.6197L65.5868 58.7147Z" fill="#44A0AC"/>
<path d="M62.2105 43.4915C61.5753 42.6009 61.7852 41.3653 62.6794 40.7319C63.5735 40.0984 64.8133 40.3069 65.4485 41.1976C66.0837 42.0882 65.8738 43.3237 64.9797 43.9572C64.0855 44.5907 62.8458 44.3822 62.2105 43.4915Z" fill="#1A2F38"/>
<path d="M77.5428 64.9775C76.9077 64.0868 77.1176 62.8512 78.0117 62.2177C78.9058 61.5841 80.1455 61.7926 80.7806 62.6833C81.4158 63.574 81.2059 64.8096 80.3118 65.4431C79.4177 66.0766 78.178 65.8682 77.5428 64.9775Z" fill="#1A2F38"/>
<path d="M44.7152 95.353C44.7152 97.2131 34.7738 98.7201 22.5093 98.7201C10.2329 98.7201 0.291504 97.2131 0.291504 95.353L5.48036 85.9345H39.5146L44.7152 95.353Z" fill="#298C9C"/>
<path d="M39.5137 85.9341C39.5137 87.3586 31.8955 88.5124 22.4966 88.5124C13.0977 88.5124 5.47949 87.3586 5.47949 85.9341C5.47949 84.5095 13.0977 83.3557 22.4966 83.3557C31.8955 83.3557 39.5137 84.5095 39.5137 85.9341Z" fill="url(#paint0_linear)"/>
<path d="M29.3129 48.6252L20.0909 39.4187L5.6682 53.829L5.68 53.8407C5.65641 53.8525 5.63282 53.8643 5.60924 53.8761C5.06677 54.4176 6.68239 56.9253 9.22965 59.4683C11.7769 62.0113 14.2888 63.6242 14.8313 63.0827C14.8548 63.0709 14.8548 63.0356 14.8666 63.012L14.8784 63.0238L29.3129 48.6252Z" fill="#075A66"/>
<path d="M26.7076 85.616H18.2993L20.139 52.9809H24.8679L26.7076 85.616Z" fill="url(#paint1_linear)"/>
<path d="M22.4971 85.6159H26.7064L24.867 52.9807H22.4971V85.6159Z" fill="#E4E8F1" fill-opacity="0.15"/>
<path d="M33.5353 42.1495C34.8797 47.3179 31.7664 52.5923 26.5893 53.9226C21.4123 55.2648 16.1291 52.1567 14.7965 46.9883C13.4521 41.8199 16.5654 36.5455 21.7425 35.2151C26.9077 33.873 32.1909 36.9811 33.5353 42.1495Z" fill="#127D85"/>
<path d="M63.8542 56.8904L36.8839 30.4361L11.3878 2.55732C11.3878 2.55732 -6.844 14.1656 22.2136 44.5521C51.566 74.6442 63.8542 56.8904 63.8542 56.8904Z" fill="#D5F6FF"/>
<path d="M25.0321 41.9497C3.87571 19.8162 7.79094 7.64274 11.4939 2.6627L11.3878 2.54497C11.3878 2.54497 -6.844 14.1533 22.2136 44.5397C50.7759 73.8313 63.1702 57.8081 63.8188 56.9251C58.6771 60.4217 46.3654 63.8241 25.0321 41.9497Z" fill="url(#paint2_linear)"/>
<path d="M63.8433 56.8894C62.0154 58.6436 54.2085 53.7107 44.503 45.1045C44.161 44.7984 43.8072 44.4923 43.4534 44.1626C40.1396 41.1723 36.6254 37.7816 33.0639 34.0966C29.2902 30.1879 25.8349 26.3381 22.8513 22.7355C22.5565 22.3823 22.2735 22.0409 21.9904 21.6995C14.0302 11.9749 9.59613 4.28702 11.3886 2.55637C13.4878 0.543164 23.4292 7.32449 35.0923 18.3441C35.4343 18.6738 35.7881 19.0034 36.1301 19.3331C38.1113 21.2286 40.1278 23.2418 42.1562 25.3492C43.6893 26.9268 45.1634 28.5044 46.5667 30.0584C46.9087 30.4352 47.2389 30.8001 47.5809 31.1769C58.9846 43.8448 66.0368 54.7938 63.8433 56.8894Z" fill="#32B9CF"/>
<path d="M50.5409 18.3679C52.3971 18.3679 53.9019 16.8656 53.9019 15.0125C53.9019 13.1594 52.3971 11.6572 50.5409 11.6572C48.6847 11.6572 47.1799 13.1594 47.1799 15.0125C47.1799 16.8656 48.6847 18.3679 50.5409 18.3679Z" fill="#7F86FF"/>
<path d="M51.3544 14.165L47.5925 31.1654L44.5027 45.1048C44.1607 44.7987 43.807 44.4926 43.4532 44.163L46.5783 30.047L49.727 15.8368L36.1416 19.3334L22.8628 22.7359C22.568 22.3827 22.285 22.0412 22.002 21.6998L35.1038 18.3327L51.3544 14.165Z" fill="#7F86FF"/>
<path d="M66.142 14.4362C65.9769 11.434 64.9745 8.54959 63.0759 6.11255C61.1772 3.67551 58.6182 2.0155 55.7407 1.12074" stroke="#7F86FF" stroke-width="1.28686" stroke-miterlimit="10" stroke-linecap="round"/>
<path d="M62.3095 15.1779C62.1797 12.7997 61.3896 10.5275 59.8919 8.60848C58.3942 6.68946 56.3659 5.37087 54.0898 4.66448" stroke="#7F86FF" stroke-width="1.28686" stroke-miterlimit="10" stroke-linecap="round"/>
<path d="M58.5471 15.4252C58.4527 13.8005 57.9221 12.2465 56.8963 10.9396C55.8705 9.62105 54.491 8.72629 52.9346 8.24359" stroke="#7F86FF" stroke-width="1.28686" stroke-miterlimit="10" stroke-linecap="round"/>
<path d="M98.5067 16.5283C95.8893 17.3965 93.5775 18.975 91.8773 21.2365C90.1772 23.498 89.3237 26.155 89.2241 28.9087" stroke="#7F86FF" stroke-width="1.28686" stroke-miterlimit="10" stroke-linecap="round"/>
<path d="M100.085 19.7309C98.0114 20.4177 96.1904 21.6617 94.8523 23.4447C93.5141 25.2278 92.8351 27.3345 92.7576 29.5123" stroke="#7F86FF" stroke-width="1.28686" stroke-miterlimit="10" stroke-linecap="round"/>
<path d="M101.209 22.9905C99.7941 23.4647 98.5465 24.3067 97.6369 25.5262C96.7169 26.7485 96.2571 28.181 96.2046 29.6703" stroke="#7F86FF" stroke-width="1.28686" stroke-miterlimit="10" stroke-linecap="round"/>
<g filter="url(#filter0_d)">
<path d="M111.735 70.5063L113.568 91.5513H105.747L107.58 70.5063H111.735Z" fill="url(#paint3_linear)"/>
<path d="M123.524 51.9492L122.221 52.4756L126.762 63.6704L128.064 63.144L123.524 51.9492Z" fill="#42E8E0"/>
<path d="M98.5365 51.1079C100.966 51.1079 102.936 49.1416 102.936 46.7159C102.936 44.2903 100.966 42.324 98.5365 42.324C96.1069 42.324 94.1372 44.2903 94.1372 46.7159C94.1372 49.1416 96.1069 51.1079 98.5365 51.1079Z" fill="url(#paint4_linear)"/>
<path d="M121.266 53.2433C121.266 61.7832 116.195 68.7372 109.901 68.7372C103.608 68.7372 98.5361 61.7832 98.5361 53.2433C98.5361 44.7033 103.608 42.1413 109.901 42.1413C116.195 42.1413 121.266 44.7033 121.266 53.2433Z" fill="url(#paint5_linear)"/>
<path d="M115.401 49.8885C112.346 51.6575 107.458 51.6575 104.403 49.8885C101.348 48.1195 101.348 45.3136 104.403 43.5446C107.458 41.7756 112.346 41.7756 115.401 43.5446C118.456 45.3136 118.456 48.1805 115.401 49.8885Z" fill="url(#paint6_linear)"/>
<path d="M104.402 44.7646C107.457 42.9956 112.346 42.9956 115.401 44.7646C116.684 45.4966 117.417 46.4115 117.6 47.3265C117.906 45.9846 117.173 44.5816 115.401 43.5446C112.346 41.7756 107.457 41.7756 104.402 43.5446C102.63 44.5816 101.897 45.9846 102.203 47.3265C102.447 46.4115 103.18 45.4966 104.402 44.7646Z" fill="#1E6672"/>
<path d="M122.855 56.5983C125.285 56.5983 127.255 54.6319 127.255 52.2063C127.255 49.7807 125.285 47.8143 122.855 47.8143C120.426 47.8143 118.456 49.7807 118.456 52.2063C118.456 54.6319 120.426 56.5983 122.855 56.5983Z" fill="url(#paint7_linear)"/>
<path d="M122.977 56.6594C125.407 56.6594 127.377 54.693 127.377 52.2674C127.377 49.8418 125.407 47.8754 122.977 47.8754C120.548 47.8754 118.578 49.8418 118.578 52.2674C118.578 54.693 120.548 56.6594 122.977 56.6594Z" fill="url(#paint8_linear)"/>
<path d="M129.881 66.7854C129.637 68.8594 127.804 72.8244 126.094 72.6414C124.444 72.4584 123.589 68.1274 123.833 66.0534C124.078 63.9794 125.666 62.4544 127.315 62.6374C128.965 62.8204 130.126 64.7114 129.881 66.7854Z" fill="url(#paint9_radial)"/>
<path d="M129.881 66.7854C129.637 68.8594 127.804 72.8244 126.094 72.6414C124.444 72.4584 123.589 68.1274 123.833 66.0534C124.078 63.9794 125.666 62.4544 127.315 62.6374C128.965 62.8204 130.126 64.7114 129.881 66.7854Z" fill="url(#paint10_linear)"/>
<path d="M113.201 70.5065H106.296L106.846 68.1885H112.59L113.201 70.5065Z" fill="#23ABD8"/>
<path opacity="0.47" d="M112.59 68.1885H110.88L111.185 70.5065H113.201L112.59 68.1885Z" fill="#96CCCA"/>
<path opacity="0.47" d="M106.846 68.1885H108.557L108.312 70.5065H106.296L106.846 68.1885Z" fill="#96CCCA"/>
<path d="M87.4892 54.8648C87.0842 54.9277 86.7908 54.642 86.7092 54.2957C86.6671 54.0262 86.7997 53.8123 86.9719 53.6751L94.9796 48.0968C95.3054 47.8806 95.7314 47.9524 95.8899 48.2591C96.1065 48.5844 96.0345 49.0097 95.7273 49.1678L87.7382 54.6881C87.701 54.8043 87.566 54.8252 87.4892 54.8648Z" fill="#74FEF7"/>
<path d="M87.9255 57.3095C86.3361 58.4674 82.333 59.7518 81.4083 58.4321C80.4836 57.1124 82.896 53.7836 84.5435 52.6442C86.1328 51.4863 88.2208 51.5762 89.1641 52.8377C90.0888 54.1574 89.573 56.1702 87.9255 57.3095Z" fill="url(#paint11_radial)"/>
<g filter="url(#filter1_d)">
<path d="M87.9255 57.3095C86.3361 58.4674 82.333 59.7518 81.4083 58.4321C80.4836 57.1124 82.896 53.7836 84.5435 52.6442C86.1328 51.4863 88.2208 51.5762 89.1641 52.8377C90.0888 54.1574 89.573 56.1702 87.9255 57.3095Z" fill="url(#paint12_linear)"/>
</g>
<path d="M106.785 29.3312C106.785 31.2832 105.38 33.7232 103.669 34.6992C101.959 35.6752 100.553 34.8822 100.553 32.9302C100.553 30.9782 101.959 28.5382 103.669 27.5622C105.38 26.5252 106.785 27.3182 106.785 29.3312Z" fill="#BCBEFF"/>
<path d="M108.618 32.0154C108.496 32.6864 108.618 33.6624 110.024 34.3334C112.773 35.7364 114.973 33.6014 116.378 34.5774C117.417 35.3094 116.928 37.5664 114.362 38.4203C111.673 39.3353 108.313 38.7253 108.068 36.0414C108.068 35.0044 108.129 33.9674 108.313 32.9914C108.374 32.6864 108.496 32.3204 108.618 32.0154Z" fill="#19212C"/>
<path d="M109.841 23.7193C104.953 23.7193 100.676 26.8912 99.2702 31.5272C99.6979 31.6492 99.8201 32.0152 99.8201 32.4422C99.6979 33.4182 99.4535 34.3332 99.4535 35.3092C99.4535 35.6752 99.2091 35.9802 98.9036 36.0412C99.6368 42.0802 105.136 46.3502 111.185 45.6182C117.234 44.8862 121.511 39.3962 120.778 33.3572C120.106 27.8672 115.401 23.7193 109.841 23.7193Z" fill="url(#paint13_linear)"/>
<path d="M109.841 24.0249C105.013 24.0249 100.797 27.1358 99.331 31.7718C99.6976 31.8328 99.942 32.2598 99.8809 32.6258C99.8809 32.6258 99.8809 32.6258 99.8809 32.6868C99.6365 33.7238 99.2699 34.9438 99.5754 36.0418C99.6976 36.5298 99.3921 36.8958 98.9644 36.9568C100.003 42.9348 105.686 46.9608 111.674 45.9238C117.662 44.8868 121.694 39.2138 120.656 33.2358C119.8 27.8678 115.217 24.0249 109.841 24.0249Z" fill="url(#paint14_linear)"/>
<path d="M113.017 35.9193C113.017 35.8583 113.017 35.7973 113.017 35.7363L112.956 35.5533C112.956 35.4313 112.895 35.3093 112.834 35.2483C112.712 36.2243 112.162 37.2613 111.184 38.1153C108.618 40.3112 104.158 40.7992 101.225 39.2743C100.125 38.7253 99.3918 37.9323 99.0251 37.0783C99.0862 37.4443 99.1474 37.8103 99.2696 38.1763C99.3918 38.5423 99.5751 38.9083 99.7584 39.2133C99.8195 39.2743 99.8806 39.3963 99.9417 39.4573C100.369 39.8842 100.858 40.2502 101.408 40.4942C104.402 42.0192 108.863 41.4702 111.368 39.3353C112.529 38.2373 113.079 37.0173 113.017 35.9193Z" fill="#1E6672"/>
<path d="M112.101 34.0894C109.902 32.5034 106.358 35.9194 101.958 33.6624C100.064 32.6864 99.6977 31.4054 99.6977 30.3684C99.5144 30.8564 99.3311 31.3444 99.2089 31.8324C98.9645 33.2964 98.8423 34.8214 98.8423 36.3464C99.1478 40.6163 104.586 41.6533 108.924 40.1893C113.018 38.8473 113.812 35.3094 112.101 34.0894Z" fill="url(#paint15_linear)"/>
<path d="M100.553 36.7128C100.614 36.7128 100.675 36.6517 100.675 36.5906C100.675 36.4685 100.614 36.2852 100.431 36.2241H100.37C100.309 36.2241 100.248 36.2852 100.248 36.3463C100.248 36.4685 100.309 36.6517 100.492 36.7128H100.553Z" fill="url(#paint16_radial)"/>
<path d="M101.103 37.6881C100.798 37.8101 100.309 37.4442 99.9423 36.7732C99.5757 36.1022 99.5146 35.4312 99.8201 35.2482C100.126 35.1262 100.614 35.4922 100.981 36.1632C101.347 36.8342 101.408 37.5052 101.103 37.6881Z" fill="#00FF3C"/>
<path d="M100.553 36.7128C100.614 36.7128 100.675 36.6517 100.675 36.5906C100.675 36.4685 100.614 36.2852 100.431 36.2241H100.37C100.309 36.2241 100.248 36.2852 100.248 36.3463C100.248 36.4685 100.309 36.6517 100.492 36.7128H100.553Z" fill="url(#paint17_radial)"/>
<path d="M100.553 35.981C100.614 35.981 100.675 35.9199 100.675 35.8588C100.675 35.7366 100.614 35.5533 100.431 35.4922H100.37C100.309 35.4922 100.248 35.5533 100.248 35.6144C100.248 35.7366 100.309 35.9199 100.492 35.981C100.492 35.9199 100.553 35.9199 100.553 35.981Z" fill="url(#paint18_radial)"/>
<path d="M101.1 36.9211C101.396 36.7598 101.335 36.0772 100.965 35.3965C100.594 34.7158 100.053 34.2948 99.7573 34.456C99.4611 34.6173 99.5214 35.2999 99.8921 35.9806C100.263 36.6613 100.803 37.0824 101.1 36.9211Z" fill="#00FF3C"/>
<path d="M100.553 35.981C100.614 35.981 100.675 35.9199 100.675 35.8588C100.675 35.7366 100.614 35.5533 100.431 35.4922H100.37C100.309 35.4922 100.248 35.5533 100.248 35.6144C100.248 35.7366 100.309 35.9199 100.492 35.981C100.492 35.9199 100.553 35.9199 100.553 35.981Z" fill="url(#paint19_radial)"/>
<path d="M100.553 35.1269C100.614 35.1269 100.675 35.0658 100.675 35.0047C100.675 34.8825 100.614 34.6992 100.431 34.6381H100.37C100.309 34.6381 100.248 34.6992 100.248 34.7603C100.248 34.8825 100.309 35.0658 100.492 35.1269C100.492 35.1269 100.492 35.1269 100.553 35.1269Z" fill="url(#paint20_radial)"/>
<path d="M101.103 36.1022C100.798 36.2242 100.309 35.8582 99.9423 35.1872C99.5757 34.5162 99.5146 33.8453 99.8201 33.6623C100.126 33.5403 100.614 33.9063 100.981 34.5772C101.347 35.3092 101.408 35.9802 101.103 36.1022Z" fill="#00FF3C"/>
<path d="M100.553 35.1269C100.614 35.1269 100.675 35.0658 100.675 35.0047C100.675 34.8825 100.614 34.6992 100.431 34.6381H100.37C100.309 34.6381 100.248 34.6992 100.248 34.7603C100.248 34.8825 100.309 35.0658 100.492 35.1269C100.492 35.1269 100.492 35.1269 100.553 35.1269Z" fill="url(#paint21_radial)"/>
<path d="M101.103 37.6881C100.798 37.8101 100.309 37.4442 99.9423 36.7732C99.5757 36.1022 99.5146 35.4312 99.8201 35.2482C100.126 35.1262 100.614 35.4922 100.981 36.1632C101.347 36.8342 101.408 37.5052 101.103 37.6881Z" fill="#42E8E0"/>
<path d="M101.1 36.9211C101.396 36.7598 101.335 36.0772 100.965 35.3965C100.594 34.7158 100.053 34.2948 99.7573 34.456C99.4611 34.6173 99.5214 35.2999 99.8921 35.9806C100.263 36.6613 100.803 37.0824 101.1 36.9211Z" fill="#42E8E0"/>
<path d="M101.103 36.1022C100.798 36.2242 100.309 35.8582 99.9423 35.1872C99.5757 34.5162 99.5146 33.8453 99.8201 33.6623C100.126 33.5403 100.614 33.9063 100.981 34.5772C101.347 35.3092 101.408 35.9802 101.103 36.1022Z" fill="#42E8E0"/>
<path d="M104.281 38.5429C104.342 38.5429 104.403 38.4818 104.403 38.4207C104.403 38.2985 104.342 38.1153 104.159 38.0542H104.098C104.036 38.0542 103.975 38.1153 103.975 38.1763C103.975 38.2985 104.036 38.4818 104.22 38.5429C104.22 38.4818 104.281 38.5429 104.281 38.5429Z" fill="url(#paint22_radial)"/>
<path d="M104.891 39.4574C104.586 39.5794 104.097 39.2134 103.73 38.5424C103.364 37.8714 103.303 37.2004 103.608 37.0174C103.914 36.8954 104.402 37.2614 104.769 37.9324C105.135 38.6034 105.135 39.3354 104.891 39.4574Z" fill="#00FF3C"/>
<path d="M104.281 38.5429C104.342 38.5429 104.403 38.4818 104.403 38.4207C104.403 38.2985 104.342 38.1153 104.159 38.0542H104.098C104.036 38.0542 103.975 38.1153 103.975 38.1763C103.975 38.2985 104.036 38.4818 104.22 38.5429C104.22 38.4818 104.281 38.5429 104.281 38.5429Z" fill="url(#paint23_radial)"/>
<path d="M104.281 37.7499C104.342 37.7499 104.403 37.6888 104.403 37.6277C104.403 37.5056 104.342 37.3223 104.159 37.2612H104.098C104.036 37.2612 103.975 37.3223 103.975 37.3834C103.975 37.5056 104.036 37.6888 104.22 37.7499H104.281Z" fill="url(#paint24_radial)"/>
<path d="M104.898 38.7288C105.195 38.5675 105.134 37.8849 104.764 37.2042C104.393 36.5235 103.852 36.1024 103.556 36.2637C103.26 36.425 103.32 37.1076 103.691 37.7883C104.062 38.469 104.602 38.8901 104.898 38.7288Z" fill="#00FF3C"/>
<path d="M104.281 37.7499C104.342 37.7499 104.403 37.6888 104.403 37.6277C104.403 37.5056 104.342 37.3223 104.159 37.2612H104.098C104.036 37.2612 103.975 37.3223 103.975 37.3834C103.975 37.5056 104.036 37.6888 104.22 37.7499H104.281Z" fill="url(#paint25_radial)"/>
<path d="M104.281 36.957C104.342 36.957 104.403 36.8959 104.403 36.8348C104.403 36.7126 104.342 36.5293 104.159 36.4682H104.098C104.036 36.4682 103.975 36.5293 103.975 36.5904C103.975 36.7126 104.036 36.8959 104.22 36.957H104.281Z" fill="url(#paint26_radial)"/>
<path d="M104.891 37.9322C104.586 38.0542 104.097 37.6882 103.73 37.0172C103.364 36.3462 103.303 35.6752 103.608 35.4922C103.914 35.3092 104.402 35.7362 104.769 36.4072C105.074 37.0782 105.135 37.7492 104.891 37.9322Z" fill="#00FF3C"/>
<path d="M104.281 36.957C104.342 36.957 104.403 36.8959 104.403 36.8348C104.403 36.7126 104.342 36.5293 104.159 36.4682H104.098C104.036 36.4682 103.975 36.5293 103.975 36.5904C103.975 36.7126 104.036 36.8959 104.22 36.957H104.281Z" fill="url(#paint27_radial)"/>
<path d="M104.891 39.4574C104.586 39.5794 104.097 39.2134 103.73 38.5424C103.364 37.8714 103.303 37.2004 103.608 37.0174C103.914 36.8954 104.402 37.2614 104.769 37.9324C105.135 38.6034 105.135 39.3354 104.891 39.4574Z" fill="#42E8E0"/>
<path d="M104.898 38.7288C105.195 38.5675 105.134 37.8849 104.764 37.2042C104.393 36.5235 103.852 36.1024 103.556 36.2637C103.26 36.425 103.32 37.1076 103.691 37.7883C104.062 38.469 104.602 38.8901 104.898 38.7288Z" fill="#42E8E0"/>
<path d="M104.891 37.9322C104.586 38.0542 104.097 37.6882 103.73 37.0172C103.364 36.3462 103.303 35.6752 103.608 35.4922C103.914 35.3092 104.402 35.7362 104.769 36.4072C105.074 37.0782 105.135 37.7492 104.891 37.9322Z" fill="#42E8E0"/>
</g>
</g>
<defs>
<filter id="filter0_d" x="60.5266" y="6.22335" width="90.0641" height="109.186" filterUnits="userSpaceOnUse" color-interpolation-filters="sRGB">
<feFlood flood-opacity="0" result="BackgroundImageFix"/>
<feColorMatrix in="SourceAlpha" type="matrix" values="0 0 0 0 0 0 0 0 0 0 0 0 0 0 0 0 0 0 127 0" result="hardAlpha"/>
<feOffset dy="3.18107"/>
<feGaussianBlur stdDeviation="10.3385"/>
<feColorMatrix type="matrix" values="0 0 0 0 0.124514 0 0 0 0 0.679167 0 0 0 0 0.652436 0 0 0 0.16 0"/>
<feBlend mode="normal" in2="BackgroundImageFix" result="effect1_dropShadow"/>
<feBlend mode="normal" in="SourceGraphic" in2="effect1_dropShadow" result="shape"/>
</filter>
<filter id="filter1_d" x="78.0225" y="48.6495" width="14.7786" height="13.522" filterUnits="userSpaceOnUse" color-interpolation-filters="sRGB">
<feFlood flood-opacity="0" result="BackgroundImageFix"/>
<feColorMatrix in="SourceAlpha" type="matrix" values="0 0 0 0 0 0 0 0 0 0 0 0 0 0 0 0 0 0 127 0" result="hardAlpha"/>
<feOffset/>
<feGaussianBlur stdDeviation="1.59054"/>
<feColorMatrix type="matrix" values="0 0 0 0 0 0 0 0 0 0 0 0 0 0 0 0 0 0 0.1 0"/>
<feBlend mode="normal" in2="BackgroundImageFix" result="effect1_dropShadow"/>
<feBlend mode="normal" in="SourceGraphic" in2="effect1_dropShadow" result="shape"/>
</filter>
<linearGradient id="paint0_linear" x1="22.4966" y1="83.3557" x2="22.4966" y2="88.5124" gradientUnits="userSpaceOnUse">
<stop stop-color="#016A7B"/>
<stop offset="1" stop-color="#075A66"/>
</linearGradient>
<linearGradient id="paint1_linear" x1="22.5035" y1="52.9809" x2="22.5035" y2="85.616" gradientUnits="userSpaceOnUse">
<stop stop-color="#127D85"/>
<stop offset="1" stop-color="#A5D3DF"/>
</linearGradient>
<linearGradient id="paint2_linear" x1="34.78" y1="2.54497" x2="34.78" y2="62.0875" gradientUnits="userSpaceOnUse">
<stop stop-color="#20858E"/>
<stop offset="1" stop-color="#A8D3DE"/>
</linearGradient>
<linearGradient id="paint3_linear" x1="109.651" y1="70.5147" x2="109.651" y2="91.5405" gradientUnits="userSpaceOnUse">
<stop stop-color="white"/>
<stop offset="1" stop-color="#C9C9C9" stop-opacity="0"/>
</linearGradient>
<linearGradient id="paint4_linear" x1="94.1767" y1="45.8814" x2="102.828" y2="47.5968" gradientUnits="userSpaceOnUse">
<stop stop-color="#F7F7F7"/>
<stop offset="0.55" stop-color="#F2F2F9"/>
<stop offset="1" stop-color="#E9E9FD"/>
</linearGradient>
<linearGradient id="paint5_linear" x1="98.518" y1="55.43" x2="121.289" y2="55.43" gradientUnits="userSpaceOnUse">
<stop stop-color="#F7F7F7"/>
<stop offset="0.55" stop-color="#F2F2F9"/>
<stop offset="1" stop-color="#E9E9FD"/>
</linearGradient>
<linearGradient id="paint6_linear" x1="102.139" y1="46.7373" x2="117.678" y2="46.7373" gradientUnits="userSpaceOnUse">
<stop stop-color="#42E8E0"/>
<stop offset="0.18" stop-color="#41E3DD"/>
<stop offset="0.38" stop-color="#3CD5D3"/>
<stop offset="0.61" stop-color="#35BDC3"/>
<stop offset="0.84" stop-color="#2C9CAD"/>
<stop offset="1" stop-color="#24819B"/>
</linearGradient>
<linearGradient id="paint7_linear" x1="118.52" y1="51.3696" x2="127.171" y2="53.085" gradientUnits="userSpaceOnUse">
<stop stop-color="#F7F7F7"/>
<stop offset="0.55" stop-color="#F2F2F9"/>
<stop offset="1" stop-color="#E9E9FD"/>
</linearGradient>
<linearGradient id="paint8_linear" x1="119.413" y1="54.8393" x2="126.54" y2="49.6524" gradientUnits="userSpaceOnUse">
<stop stop-color="#F7F7F7"/>
<stop offset="0.55" stop-color="#F2F2F9"/>
<stop offset="1" stop-color="#E9E9FD"/>
</linearGradient>
<radialGradient id="paint9_radial" cx="0" cy="0" r="1" gradientUnits="userSpaceOnUse" gradientTransform="translate(126.884 67.9464) rotate(6.88215) scale(3.05464 5.02723)">
<stop stop-color="#2BB675"/>
<stop offset="1" stop-color="#14444F"/>
</radialGradient>
<linearGradient id="paint10_linear" x1="123.345" y1="67.2527" x2="129.4" y2="67.9974" gradientUnits="userSpaceOnUse">
<stop stop-color="#F7F7F7"/>
<stop offset="0.55" stop-color="#F2F2F9"/>
<stop offset="1" stop-color="#E9E9FD"/>
</linearGradient>
<radialGradient id="paint11_radial" cx="0" cy="0" r="1" gradientUnits="userSpaceOnUse" gradientTransform="translate(93.5357 48.7994) rotate(54.2979) scale(7.44015 12.2391)">
<stop stop-color="#2BB675"/>
<stop offset="1" stop-color="#23ABD8"/>
</radialGradient>
<linearGradient id="paint12_linear" x1="88.6109" y1="55.1189" x2="82.0662" y2="54.2945" gradientUnits="userSpaceOnUse">
<stop stop-color="white"/>
<stop offset="0.55" stop-color="#F2F2F9"/>
<stop offset="1" stop-color="#E9E9FD"/>
</linearGradient>
<linearGradient id="paint13_linear" x1="98.832" y1="34.7092" x2="120.842" y2="34.7092" gradientUnits="userSpaceOnUse">
<stop stop-color="#F7F7F7"/>
<stop offset="0.55" stop-color="#F2F2F9"/>
<stop offset="1" stop-color="#E9E9FD"/>
</linearGradient>
<linearGradient id="paint14_linear" x1="108.414" y1="45.8828" x2="111.468" y2="24.1197" gradientUnits="userSpaceOnUse">
<stop stop-color="#F7F7F7"/>
<stop offset="0.55" stop-color="#F2F2F9"/>
<stop offset="1" stop-color="#E9E9FD"/>
</linearGradient>
<linearGradient id="paint15_linear" x1="98.8637" y1="35.6118" x2="112.946" y2="35.6118" gradientUnits="userSpaceOnUse">
<stop stop-color="#00ACBF"/>
<stop offset="0.29" stop-color="#04A7BB"/>
<stop offset="0.63" stop-color="#1099AF"/>
<stop offset="1" stop-color="#24819B"/>
</linearGradient>
<radialGradient id="paint16_radial" cx="0" cy="0" r="1" gradientUnits="userSpaceOnUse" gradientTransform="translate(100.454 36.4542) rotate(180) scale(0.238555)">
<stop stop-color="white"/>
<stop offset="1" stop-color="#95FDA8"/>
</radialGradient>
<radialGradient id="paint17_radial" cx="0" cy="0" r="1" gradientUnits="userSpaceOnUse" gradientTransform="translate(100.454 36.4542) rotate(180) scale(0.238555)">
<stop stop-color="white"/>
<stop offset="1" stop-color="#95FDA8"/>
</radialGradient>
<radialGradient id="paint18_radial" cx="0" cy="0" r="1" gradientUnits="userSpaceOnUse" gradientTransform="translate(100.453 35.6812) scale(0.238372)">
<stop stop-color="white"/>
<stop offset="1" stop-color="#95FDA8"/>
</radialGradient>
<radialGradient id="paint19_radial" cx="0" cy="0" r="1" gradientUnits="userSpaceOnUse" gradientTransform="translate(100.453 35.6812) scale(0.238372)">
<stop stop-color="white"/>
<stop offset="1" stop-color="#95FDA8"/>
</radialGradient>
<radialGradient id="paint20_radial" cx="0" cy="0" r="1" gradientUnits="userSpaceOnUse" gradientTransform="translate(100.45 34.8865) scale(0.238799)">
<stop stop-color="white"/>
<stop offset="1" stop-color="#95FDA8"/>
</radialGradient>
<radialGradient id="paint21_radial" cx="0" cy="0" r="1" gradientUnits="userSpaceOnUse" gradientTransform="translate(100.45 34.8865) scale(0.238799)">
<stop stop-color="white"/>
<stop offset="1" stop-color="#95FDA8"/>
</radialGradient>
<radialGradient id="paint22_radial" cx="0" cy="0" r="1" gradientUnits="userSpaceOnUse" gradientTransform="translate(104.205 38.2512) scale(0.238825)">
<stop stop-color="white"/>
<stop offset="1" stop-color="#95FDA8"/>
</radialGradient>
<radialGradient id="paint23_radial" cx="0" cy="0" r="1" gradientUnits="userSpaceOnUse" gradientTransform="translate(104.205 38.2512) scale(0.238825)">
<stop stop-color="white"/>
<stop offset="1" stop-color="#95FDA8"/>
</radialGradient>
<radialGradient id="paint24_radial" cx="0" cy="0" r="1" gradientUnits="userSpaceOnUse" gradientTransform="translate(104.205 37.479) scale(0.238397)">
<stop stop-color="white"/>
<stop offset="1" stop-color="#95FDA8"/>
</radialGradient>
<radialGradient id="paint25_radial" cx="0" cy="0" r="1" gradientUnits="userSpaceOnUse" gradientTransform="translate(104.205 37.479) scale(0.238397)">
<stop stop-color="white"/>
<stop offset="1" stop-color="#95FDA8"/>
</radialGradient>
<radialGradient id="paint26_radial" cx="0" cy="0" r="1" gradientUnits="userSpaceOnUse" gradientTransform="translate(104.202 36.6843) scale(0.238825)">
<stop stop-color="white"/>
<stop offset="1" stop-color="#95FDA8"/>
</radialGradient>
<radialGradient id="paint27_radial" cx="0" cy="0" r="1" gradientUnits="userSpaceOnUse" gradientTransform="translate(104.202 36.6843) scale(0.238825)">
<stop stop-color="white"/>
<stop offset="1" stop-color="#95FDA8"/>
</radialGradient>
<clipPath id="clip0">
<rect width="130" height="101" fill="white"/>
</clipPath>
</defs>
</svg>
